<svg id="Layer_1" data-name="Layer 1" xmlns="http://www.w3.org/2000/svg" viewBox="0 0 294.98 334.16"><defs><style>.cls-1{fill:#fff;}</style></defs><path class="cls-1" d="M202.18,223.24c.55,15.28.66,33.67-5.73,40.28-1.58,1.64-3.63,2.22-6.49.51-3.33-2-6.59-4.55-7.34-11-1.13-9.92,4.48-19.54,12.34-27.51,0-2.55-.18-5.25-.22-7.9-1.53,4.06-4,7.6-7.53,9.22-8.85,4-16-7.22-13.48-22.3,2.44-14.55,8.27-22.41,13.17-24.63,3.85-1.75,7.12.36,8.55,3.77.28-2.45.56-4.66.78-6.73.15-1.69,1.07-2.23,2.14-1.67,2.23,1.08,4.87,4.87,4.6,10.67-.26,7.07-1,21.46-.85,32.61a52.76,52.76,0,0,0,10.67-22.22c.22-1,1.09-1.43,1.72-.55s1.06,3.11.61,6.44C214,209.75,208.85,216.74,202.18,223.24Zm-11.61-39.13c-3.07,1.15-7.3,10.49-8.79,21.26-1.44,10.62,1.34,19.56,5.23,17.91s6-9.88,7-20.57C195.28,189.39,193.44,183,190.57,184.11Zm-.22,75.68c2.08,1.26,5.14-12.18,4.76-29.63C185.93,243.13,187.67,258.22,190.35,259.79Z" transform="translate(-40.23 -12.92)"/><path class="cls-1" d="M235.47,158.63c.3-1.64,1-2.18,2.05-1.62,2.22,1.08,4.87,4.86,4.74,10.72-.15,5.28-1.69,14.67-1.68,20.82,0,6.47,1.82,10.65,5,9,3.85-2,6.17-10.91,6.53-19.07.09-1.09.72-1.49,1.49-.8s1.87,3.1,1.84,6.36c-.1,6.42-3.76,14.46-9.17,16.57s-9.42.21-11.46-4.31c-1.29,5.34-4,10.86-8.62,12.95-8.94,4.05-16.31-7.33-13.61-22.58,2.64-14.88,8.28-22.65,13.08-24.83,4.14-1.88,7.5.42,9,4.26A73.88,73.88,0,0,1,235.47,158.63Zm-5.9,7.44c-3.21,1.1-7.39,10.54-8.8,21.49-1.34,10.58,1.24,19.61,5,18,4-1.7,6.19-10.12,7.26-20.8C234.33,171.44,232.49,165.09,229.57,166.07Z" transform="translate(-40.23 -12.92)"/><path class="cls-1" d="M288.65,161.87c0-1.6,1.19-1.7,1.82-.83A10.54,10.54,0,0,1,292.1,168c-.64,8.29-5.74,14.43-12.45,18-6,3.17-10.41,4.14-15.17,2.59a11,11,0,0,1-6.19-5c-.77,10.32-1.22,22.35-1,35.12,0,1-.58,1.54-1.55.93-2.36-1.36-4.06-3.84-4.9-10.53-1.34-10.64,1-48.44,3.38-59.27.39-1.68,1.35-1.88,2.35-.95a11.32,11.32,0,0,1,2.54,4.07c2.57-5.58,7-10.84,13.12-8.39,6.84,2.81,8.61,12.33,8.63,21.82,0,7.66-1.47,13.89-4.12,17.76C285.91,179.35,288.54,169.81,288.65,161.87Zm-23.16,23.84c4.21,1.1,7.28-8.75,7.61-20,.26-9.39-2.3-17.85-5.23-17.92s-6.61,7.41-7.77,16.86c-.27,2.21-.55,4.42-.78,7C259.66,178.73,261.8,184.72,265.49,185.71Z" transform="translate(-40.23 -12.92)"/><path class="cls-1" d="M138.85,97.48c-2.94,30.07-11.75,75.06-20.51,110.89l-5.29,20.88c-2.77,10.12-5.47,18.63-7.68,25.05-6.5,18.14-8.38,23.85-13.05,23.5-2.1-.17-2.87-2.11-1.76-5.32,5.5-17.34,10.49-36,15-53.81l4.33-18.79c8.69-38.4,14.84-75.69,18.81-105.27C130,84.48,137.26,52,145.47,42.25c0,0-2.19,13.69-1.64,23.58Z" transform="translate(-40.23 -12.92)"/><path class="cls-1" d="M67.1,243.06c4.09,2.9,10.69-.06,13.91-.32a1.66,1.66,0,0,1,1.83,1.69,4.61,4.61,0,0,1-1.5,2.71c-2.2,2.2-6.26,2.74-8.7,3a5.49,5.49,0,0,0-4.14,2.71c-.2.4-.1.78.71.84,10.54,1,15.79-5.55,15.49-9.92-.24-3.22-1.63-4.95-3.83-4.58-3.25.54-9.38,3.08-11.49.78-4.06-4.4-.91-17.92,1.43-17.89,1.66,0,1.93,5.39,2.84,7.73s2.34,2.94,3.63,2.95c.74,0,.78-.38.64-.85a56.85,56.85,0,0,1-1.42-6.1c-.2-1.22-.71-3.36-2.4-4.37a8.64,8.64,0,0,0-4.54-1.15c-2.14.1-3.49,2-4.44,4.3a24.35,24.35,0,0,0-1.42,11.2c-1.48-2.33-2.86-4.73-4.11-7.18a86.31,86.31,0,0,1-5.74-14.91c-1.48-5.14-2.66-10.4-3.8-15.68s-2.27-10.49-2.95-15.8a141.2,141.2,0,0,1,5.68-62.87A137.92,137.92,0,0,1,85.07,65.82a131.09,131.09,0,0,1,52.38-33,128.41,128.41,0,0,1,61.21-5,144.31,144.31,0,0,1,57,22.22A140.07,140.07,0,0,1,279.5,69.77a146.25,146.25,0,0,1,19.25,24.55c10.11,16.18,19,36.33,19.7,53.44.33,8.74-3.75,18.62-11.62,21.75-5.22,2-10.28-3-11.22-13.23,9.22,2.42,14.53-3,16.62-10.9,1.82-6.74-.07-12.95-2.85-14.48a19.72,19.72,0,0,0-7.94-2.42c-6.07-.61-13.61,8.84-14.24,24.08s9.06,25.34,21.19,19.6c7.36-3.45,12.42-10.47,13.78-20.56,1.64-12.2-3.61-39.1-14.86-62.08a136.34,136.34,0,0,0-18.71-28,131.79,131.79,0,0,0-11.81-12.18A144.93,144.93,0,0,0,263.6,38.53a138.07,138.07,0,0,0-29.93-16.31,134.68,134.68,0,0,0-33.09-8.33A144.46,144.46,0,0,0,133.65,22,142.36,142.36,0,0,0,78.13,59.28,145.44,145.44,0,0,0,42.5,183c.92,5.42,2.28,10.8,3.69,16s2.85,10.52,4.62,15.71a85.31,85.31,0,0,0,6.75,15C60.4,234.68,63,240.17,67.1,243.06Zm228.45-91.27c.37-11.19,5.74-20.58,8.5-19.86,1.82.45,2,6.41.73,11.84-1.13,4.92-3.2,10.84-9.26,10C295.5,153.2,295.52,152.49,295.55,151.79Z" transform="translate(-40.23 -12.92)"/><path class="cls-1" d="M94.81,212.66c-1.19-4.21-3.16-6.27-4.85-6.86-.87-.14-1.28,0-1.28,1a24.55,24.55,0,0,0,1,4.89c-1.56-1.83-4.07-2.52-6.09-.5-2.28,2.28-3.88,8.09-2.24,17,1.79,9.38,8.42,14.27,12.67,10a8.38,8.38,0,0,0,2.16-4.44c1.5,4.44,16,41.29,17.41,43.76,1.83,3.39,3.25,3.71,4.62,3.8.69,0,.92-.28.64-1C113.78,268,97,220.44,94.81,212.66Zm-1.74,23.61c-1.78,1.78-5.4-2.93-6.86-9.34s-1.1-12.81.46-14.18c1.41-1.23,3.88,2.06,6,10C94.44,229.13,95,234.39,93.07,236.27Z" transform="translate(-40.23 -12.92)"/><path class="cls-1" d="M243.21,123c-1.18-4.54-5.6-3.46-19.83-.53-5,1.12-11.58,2.82-19.25,5.26l-15.71,5.42c-8,2.85-16.48,6.1-25.06,9.57-1.72-11.38-3.56-22-5.48-31.31L152,71.3c-4.32-11.69-6.82-29-6.82-29-6,15-2.55,57-.37,69.74,1.89,11.16,3.81,23.25,5.67,36-16,6.85-31.42,14.2-43.19,21L84.42,180C77.91,185.47,68,190.22,68,190.22c9.06,2.83,33.22-6.52,40.47-10.29C121.19,173.34,136,166.1,152.06,159c3.75,27,7.19,56.63,9.66,87.19l1.87,24.35c1.35,23.24,2.39,47.66,2.34,70.73-.11,4.31,1.51,6.33,4,5.7,5.63-1.45,5.73-9.07,6.65-33.49.23-8.62.24-19.94-.25-33.22L174.85,253c-2-31.37-5.51-67.74-9.94-99.56,6.66-2.8,13.46-5.55,20.35-8.19l14-5.29c13.4-4.67,27.5-9.25,40.88-12.72C242.66,126.69,243.73,125,243.21,123Z" transform="translate(-40.23 -12.92)"/><path class="cls-1" d="M322.47,198.54a12.75,12.75,0,1,1,12.75-12.75A12.76,12.76,0,0,1,322.47,198.54Zm0-22.5a9.75,9.75,0,1,0,9.75,9.75A9.76,9.76,0,0,0,322.47,176Z" transform="translate(-40.23 -12.92)"/><path class="cls-1" d="M320,187.52v5.71h-3.15V178.35h4.34a7.42,7.42,0,0,1,4.49,1.11,3.92,3.92,0,0,1,1.45,3.35,4,4,0,0,1-.72,2.34,4.83,4.83,0,0,1-2.05,1.6q3.36,5,4.38,6.48h-3.5l-3.56-5.71Zm0-2.56h1a3.9,3.9,0,0,0,2.21-.5,1.77,1.77,0,0,0,.71-1.57,1.62,1.62,0,0,0-.72-1.5,4.43,4.43,0,0,0-2.26-.45h-1Z" transform="translate(-40.23 -12.92)"/></svg>