<svg width="20" height="21" viewBox="0 0 20 21" fill="none" xmlns="http://www.w3.org/2000/svg">
<path d="M6 5.62451C5.73478 5.62451 5.48043 5.72987 5.29289 5.91741C5.10536 6.10494 5 6.3593 5 6.62451C5 6.88973 5.10536 7.14408 5.29289 7.33162C5.48043 7.51915 5.73478 7.62451 6 7.62451H14C14.2652 7.62451 14.5196 7.51915 14.7071 7.33162C14.8946 7.14408 15 6.88973 15 6.62451C15 6.3593 14.8946 6.10494 14.7071 5.91741C14.5196 5.72987 14.2652 5.62451 14 5.62451H6ZM5 10.6415C5 10.3763 5.10536 10.1219 5.29289 9.93441C5.48043 9.74687 5.73478 9.64151 6 9.64151H14C14.2652 9.64151 14.5196 9.74687 14.7071 9.93441C14.8946 10.1219 15 10.3763 15 10.6415C15 10.9067 14.8946 11.1611 14.7071 11.3486C14.5196 11.5362 14.2652 11.6415 14 11.6415H6C5.73478 11.6415 5.48043 11.5362 5.29289 11.3486C5.10536 11.1611 5 10.9067 5 10.6415ZM6 13.6585C5.73478 13.6585 5.48043 13.7639 5.29289 13.9514C5.10536 14.1389 5 14.3933 5 14.6585C5 14.9237 5.10536 15.1781 5.29289 15.3656C5.48043 15.5532 5.73478 15.6585 6 15.6585H14C14.2652 15.6585 14.5196 15.5532 14.7071 15.3656C14.8946 15.1781 15 14.9237 15 14.6585C15 14.3933 14.8946 14.1389 14.7071 13.9514C14.5196 13.7639 14.2652 13.6585 14 13.6585H6Z" fill="#F2F2F2"/>
<path fill-rule="evenodd" clip-rule="evenodd" d="M20 10.6416C20 16.1646 15.523 20.6416 10 20.6416C4.477 20.6416 0 16.1646 0 10.6416C0 5.1186 4.477 0.641602 10 0.641602C15.523 0.641602 20 5.1186 20 10.6416ZM18 10.6416C18 12.7633 17.1571 14.7982 15.6569 16.2985C14.1566 17.7987 12.1217 18.6416 10 18.6416C7.87827 18.6416 5.84344 17.7987 4.34315 16.2985C2.84285 14.7982 2 12.7633 2 10.6416C2 8.51987 2.84285 6.48504 4.34315 4.98475C5.84344 3.48446 7.87827 2.6416 10 2.6416C12.1217 2.6416 14.1566 3.48446 15.6569 4.98475C17.1571 6.48504 18 8.51987 18 10.6416Z" fill="#F2F2F2"/>
</svg>
