<svg width="39" height="44" viewBox="0 0 39 44" fill="none" xmlns="http://www.w3.org/2000/svg">
<path d="M20.9792 27.2369C21.0524 29.2132 21.0614 31.6017 20.2383 32.4528C20.1339 32.5709 19.9876 32.6437 19.8305 32.6556C19.6734 32.6675 19.5178 32.6177 19.3969 32.5167C19.1316 32.3769 18.9056 32.1729 18.7394 31.9233C18.5732 31.6737 18.4723 31.3865 18.4456 31.0878C18.2992 29.8067 19.0219 28.5528 20.0463 27.528C20.0463 27.1985 20.0191 26.8511 20.0191 26.501C19.9422 26.7539 19.8161 26.9892 19.6481 27.1933C19.4802 27.3975 19.2736 27.5664 19.0402 27.6905C17.8966 28.2121 16.9637 26.7573 17.2931 24.7988C17.6225 22.8403 18.3644 21.8963 18.9947 21.6052C19.6249 21.3141 19.9187 21.6498 20.1017 22.0901C20.1383 21.77 20.1749 21.486 20.2021 21.2207C20.2293 20.9555 20.3391 20.9278 20.4766 21.001C20.6941 21.1534 20.865 21.3634 20.97 21.6074C21.075 21.8514 21.11 22.1198 21.0712 22.3826C21.0346 23.2975 20.9342 25.1645 20.9614 26.6104C21.6433 25.7725 22.1166 24.7846 22.3425 23.728C22.3701 23.5909 22.4795 23.5449 22.5621 23.6548C22.679 23.9161 22.7078 24.2084 22.6442 24.4876C22.5072 25.4887 21.8376 26.3947 20.9792 27.2369ZM19.479 22.1678C19.0857 22.3143 18.5367 23.5311 18.3447 24.922C18.1528 26.313 18.5184 27.457 19.0215 27.2462C19.5245 27.0355 19.7897 25.9651 19.9271 24.5836C20.0825 22.8541 19.845 22.0303 19.4696 22.1678H19.479ZM19.4518 31.9683C19.7169 32.1331 20.1213 30.3943 20.0646 28.125C18.8661 29.8178 19.0951 31.7763 19.4428 31.9777L19.4518 31.9683Z" fill="#F2F2F2"/>
<path d="M25.2861 18.8736C25.3227 18.6602 25.4111 18.5901 25.5513 18.6633C25.7697 18.818 25.9421 19.029 26.05 19.274C26.1579 19.519 26.1974 19.7886 26.1641 20.0543C26.1458 20.8134 25.9445 21.9578 25.9445 22.7535C25.9445 23.5493 26.1824 24.1351 26.594 23.9145C27.0055 23.6939 27.3899 22.4963 27.4354 21.4439C27.4443 21.3068 27.5247 21.2519 27.6273 21.3434C27.8005 21.5816 27.8847 21.8729 27.8653 22.1668C27.8563 22.9996 27.3805 24.0422 26.6761 24.3173C26.544 24.3886 26.3982 24.4307 26.2484 24.4408C26.0987 24.4509 25.9485 24.4288 25.8081 24.3759C25.6676 24.323 25.5401 24.2405 25.4342 24.1341C25.3283 24.0277 25.2465 23.8999 25.1942 23.7591C25.0295 24.4544 24.6728 25.1684 24.0782 25.4336C22.9177 25.9552 21.9651 24.4821 22.3128 22.5053C22.6606 20.5285 23.3841 19.568 24.005 19.284C24.6259 19 24.9746 19.3389 25.1656 19.8332C25.1898 19.5116 25.23 19.1913 25.2861 18.8736ZM24.5179 19.8346C24.1064 19.981 23.5573 21.1978 23.3743 22.6165C23.1913 24.0351 23.539 25.1617 24.0238 24.95C24.5085 24.7384 24.8273 23.6413 24.9661 22.2597C25.1393 20.5298 24.9018 19.7064 24.5179 19.8346Z" fill="#F2F2F2"/>
<path d="M32.174 19.2943C32.174 19.084 32.3294 19.0747 32.4119 19.1845C32.5838 19.4499 32.6582 19.7669 32.6222 20.0811C32.5757 20.5765 32.4034 21.0518 32.1216 21.4618C31.8398 21.8718 31.4579 22.2029 31.0121 22.4236C30.143 22.8996 29.6672 22.9635 29.0454 22.7621C28.7069 22.6565 28.4203 22.4279 28.2419 22.1213C28.1415 23.4574 28.0866 25.0131 28.1138 26.6693C28.1138 26.8064 28.0406 26.8707 27.9125 26.788C27.6108 26.6143 27.3912 26.2937 27.2813 25.4248C27.1077 24.0432 27.4094 19.1474 27.7206 17.7471C27.7755 17.5274 27.8942 17.5002 28.0223 17.6283C28.1691 17.7795 28.2814 17.9606 28.3517 18.1593C28.6812 17.4363 29.2574 16.7594 30.0533 17.0702C30.8492 17.381 31.1692 18.6714 31.1692 19.8976C31.2143 20.6982 31.0302 21.495 30.6385 22.1946C31.8174 21.5547 32.1557 20.3191 32.174 19.2943ZM29.174 22.3785C29.723 22.525 30.1163 21.2439 30.1618 19.7797C30.1984 18.5625 29.86 17.4645 29.4851 17.4555C29.1101 17.4466 28.6254 18.4165 28.479 19.6435C28.4424 19.9271 28.4057 20.22 28.3785 20.5496C28.4151 21.4725 28.6981 22.2504 29.174 22.3785Z" fill="#F2F2F2"/>
<path d="M12.7722 10.9488C12.1859 15.788 11.2999 20.5861 10.1194 25.3155L9.43334 28.0242C9.07625 29.333 8.72897 30.4399 8.43615 31.2727C7.59474 33.6152 7.35682 34.3565 6.74395 34.3091C6.46943 34.2908 6.369 34.0345 6.51541 33.6228C7.2296 31.3718 7.87818 28.965 8.4549 26.6498L9.01286 24.2157C10.1382 19.2378 10.9323 14.4152 11.446 10.5809C11.6197 9.27209 12.562 5.05371 13.623 3.80029C13.4641 4.81107 13.3938 5.83379 13.4128 6.8568L12.7722 10.9488Z" fill="#F2F2F2"/>
<path d="M3.47879 29.8083C4.00952 30.1834 4.85986 29.7989 5.28079 29.7636C5.31144 29.7595 5.34261 29.7622 5.3721 29.7715C5.40158 29.7808 5.42865 29.7966 5.45137 29.8175C5.47409 29.8385 5.49191 29.8643 5.50354 29.8929C5.51518 29.9216 5.52036 29.9524 5.51871 29.9833C5.49648 30.1179 5.42872 30.2407 5.32677 30.3312C5.00041 30.5738 4.60784 30.711 4.20146 30.7246C4.09061 30.7364 3.98407 30.774 3.89036 30.8344C3.79665 30.8948 3.71837 30.9763 3.6618 31.0724C3.63457 31.1273 3.65287 31.1729 3.75107 31.1823C5.11385 31.3104 5.79992 30.4593 5.75439 29.8918C5.72716 29.4707 5.54415 29.2515 5.26026 29.297C4.97637 29.3426 4.04345 29.6989 3.76937 29.3975C3.23864 28.8299 3.65064 27.0733 3.95239 27.0822C4.25414 27.0911 4.19923 27.7775 4.31841 28.0798C4.43759 28.3821 4.62016 28.4642 4.78487 28.4642C4.94958 28.4642 4.88531 28.4196 4.867 28.3544C4.79126 28.0958 4.73016 27.8331 4.68399 27.5676C4.67347 27.4566 4.64031 27.349 4.58657 27.2514C4.53283 27.1538 4.45964 27.0682 4.37153 27C4.19348 26.8983 3.99085 26.8477 3.78589 26.8536C3.51137 26.8625 3.33952 27.1099 3.20962 27.4118C3.03567 27.8757 2.97299 28.374 3.02661 28.8666C2.83209 28.5658 2.65489 28.2542 2.49587 27.9333C2.18959 27.3141 1.94153 26.6677 1.7549 26.0025C1.56296 25.3327 1.40717 24.6575 1.26076 23.9712C1.11435 23.2849 0.967942 22.608 0.876436 21.9216C0.503903 19.1856 0.755707 16.4007 1.61295 13.776C2.46366 11.1758 3.90013 8.80581 5.81153 6.84895C7.699 4.89838 10.0266 3.42912 12.5991 2.56448C13.8738 2.14363 15.1935 1.87386 16.5312 1.76072C17.8625 1.65831 19.2012 1.71362 20.5195 1.92549C23.1575 2.34389 25.6752 3.3231 27.9029 4.79714C29.0243 5.53202 30.0609 6.38893 30.9936 7.35219C31.9341 8.32198 32.7682 9.38961 33.4817 10.5369C34.7896 12.6324 35.9515 15.2402 36.0341 17.455C36.0787 18.5896 35.5493 19.8707 34.5338 20.2735C33.8571 20.5387 33.1983 19.889 33.0795 18.5624C34.2687 18.875 34.9641 18.1779 35.2292 17.1531C35.4672 16.2837 35.2203 15.4786 34.8632 15.2777C34.5471 15.1017 34.1971 14.9951 33.8366 14.9651C33.0501 14.883 32.0712 16.1091 31.9886 18.0855C31.906 20.0618 33.1594 21.3706 34.7329 20.6307C35.2356 20.3797 35.6644 20.0022 35.9774 19.5355C36.2904 19.0687 36.4768 18.5286 36.5184 17.968C36.7286 16.3851 36.0519 12.8986 34.599 9.92466C33.9444 8.61793 33.13 7.3976 32.1747 6.29168C31.7001 5.73147 31.1899 5.20243 30.6472 4.70783C30.1046 4.21128 29.5335 3.74685 28.9367 3.31688C27.736 2.45422 26.4327 1.74415 25.0569 1.203C23.6788 0.662067 22.2375 0.299087 20.7677 0.122838C17.8375 -0.214757 14.8691 0.14589 12.1049 1.17531C9.35949 2.18879 6.89489 3.84193 4.91521 5.99786C2.9683 8.13528 1.53903 10.6921 0.737993 13.4705C-0.0630441 16.2489 -0.214376 19.1745 0.295706 22.0208C0.414441 22.7254 0.588526 23.4206 0.771538 24.098C0.954551 24.7754 1.13756 25.4613 1.36611 26.1293C1.59551 26.8057 1.88954 27.4584 2.24412 28.0784C2.61907 28.7192 2.9485 29.4332 3.47879 29.8083ZM33.0621 17.9855C33.1067 16.5396 33.8031 15.3228 34.1597 15.4139C34.5164 15.505 34.416 16.2467 34.249 16.9513C34.0821 17.6559 33.8375 18.3512 33.0505 18.2507C33.0591 18.1626 33.063 18.074 33.0621 17.9855Z" fill="#F2F2F2"/>
<path d="M7.07481 25.8731C6.91948 25.3239 6.66326 25.0586 6.44364 24.9854C6.22403 24.9122 6.27893 24.9854 6.27893 25.1136C6.2998 25.3279 6.34274 25.5395 6.40704 25.7449C6.36464 25.6821 6.30866 25.6296 6.24325 25.5914C6.17783 25.5531 6.10465 25.5301 6.02913 25.524C5.9536 25.5178 5.87766 25.5288 5.80694 25.556C5.73621 25.5832 5.6725 25.6259 5.62053 25.6811C5.36431 25.9463 5.11747 26.7336 5.32771 27.8771C5.53795 29.0207 6.41642 29.7258 6.96501 29.1765C7.11158 29.0158 7.20713 28.8152 7.23952 28.6001C7.43146 29.1765 9.31605 33.9442 9.49906 34.2643C9.5548 34.386 9.63717 34.4936 9.74008 34.5792C9.843 34.6648 9.96383 34.7261 10.0936 34.7586C10.2673 34.777 10.2124 34.722 10.1758 34.6305C9.52629 33.0466 7.35871 26.8796 7.07481 25.8731ZM6.84627 28.9296C6.61773 29.1582 6.15127 28.5545 5.95888 27.7217C5.7665 26.889 5.81247 26.0656 6.01379 25.8825C6.2151 25.6994 6.51685 26.1477 6.79137 27.173C7.01902 28.0053 7.09311 28.6822 6.84627 28.9296Z" fill="#F2F2F2"/>
<path d="M26.2841 14.2506C26.1288 13.6648 25.5615 13.8041 23.7135 14.1868C23.064 14.3332 22.2132 14.5529 21.216 14.8637L19.1855 15.5697C18.1517 15.9358 17.054 16.3565 15.9381 16.8052C15.7185 15.3317 15.4806 13.9595 15.2337 12.7516L14.4749 7.5629C14.0738 6.33639 13.7768 5.07822 13.5871 3.80176C12.8006 5.74194 13.2576 11.1865 13.5424 12.8338C13.7893 14.2796 14.0366 15.8443 14.274 17.5005C12.3617 18.301 10.4957 19.2083 8.685 20.2181L5.73047 21.647C5.06621 22.157 4.35175 22.5981 3.59814 22.9633C4.76898 23.3295 7.8976 22.1216 8.83945 21.6273C10.4861 20.7762 12.4069 19.8336 14.4834 18.9187C14.9681 22.4141 15.4163 26.2574 15.7368 30.2106L15.9836 33.3675C16.1573 36.3781 16.2961 39.5444 16.2854 42.5272C16.2671 43.0854 16.4773 43.3507 16.8067 43.2685C17.5384 43.0765 17.5477 42.0972 17.6665 38.9309C17.6937 37.8145 17.6937 36.3504 17.6392 34.6299L17.4379 31.0978C17.1817 27.0344 16.7237 22.3221 16.1479 18.2042C17.0076 17.838 17.895 17.4813 18.7815 17.1428L20.5929 16.4565C22.3311 15.8523 24.1514 15.2575 25.8891 14.8092C26.2199 14.7369 26.3573 14.5185 26.2841 14.2506Z" fill="#910811"/>
<path d="M36.5456 23.841C37.3488 23.841 37.9999 23.1897 37.9999 22.3862C37.9999 21.5827 37.3488 20.9314 36.5456 20.9314C35.7424 20.9314 35.0913 21.5827 35.0913 22.3862C35.0913 23.1897 35.7424 23.841 36.5456 23.841Z" stroke="#F2F2F2" stroke-width="0.655" stroke-miterlimit="10"/>
<path d="M36.226 22.6153V23.3565H35.8145V21.4257H36.3724C36.5783 21.4105 36.7836 21.4618 36.9581 21.5722C37.06 21.6641 37.1253 21.7898 37.1417 21.9261C37.1581 22.0624 37.1246 22.2 37.0473 22.3134C36.9801 22.4067 36.8883 22.4795 36.7822 22.5238L37.3495 23.3655H36.892L36.4345 22.6242L36.226 22.6153ZM36.226 22.2858H36.3541C36.4528 22.2928 36.5514 22.2706 36.6376 22.2219C36.6682 22.1986 36.6924 22.1679 36.708 22.1327C36.7236 22.0975 36.7301 22.0589 36.7268 22.0205C36.7303 21.9835 36.7238 21.9462 36.7081 21.9125C36.6924 21.8787 36.6681 21.8498 36.6376 21.8285C36.5466 21.7844 36.4455 21.7654 36.3447 21.7736H36.226V22.2858Z" fill="#F2F2F2"/>
</svg>
